<svg width="322" height="162" viewBox="0 0 322 162" fill="none" xmlns="http://www.w3.org/2000/svg">
<path fill-rule="evenodd" clip-rule="evenodd" d="M-2.38553e-06 78.7019C-2.60964e-06 73.5748 2.76525 68.8438 7.23941 66.3161L78.6358 25.9803C85.497 22.104 94.211 24.507 98.099 31.3475C101.987 38.188 99.5767 46.8756 92.7155 50.7519L43.2426 78.7019L92.7155 106.652C99.5767 110.528 101.987 119.216 98.099 126.056C94.211 132.897 85.497 135.3 78.6358 131.423L7.23941 91.0877C2.76525 88.56 -2.16141e-06 83.829 -2.38553e-06 78.7019Z" fill="#2C528B"/>
<path fill-rule="evenodd" clip-rule="evenodd" d="M321.787 78.7019C321.787 73.5748 319.022 68.8438 314.548 66.3161L243.152 25.9803C236.29 22.104 227.576 24.507 223.688 31.3475C219.8 38.188 222.211 46.8756 229.072 50.7519L278.545 78.7019L229.072 106.652C222.211 110.528 219.8 119.216 223.688 126.056C227.576 132.897 236.29 135.3 243.152 131.423L314.548 91.0877C319.022 88.56 321.787 83.829 321.787 78.7019Z" fill="#2C528B"/>
<path fill-rule="evenodd" clip-rule="evenodd" d="M193.911 1.07548C201.256 4.07458 204.765 12.4254 201.748 19.7276L146.637 153.133C143.62 160.435 135.221 163.924 127.876 160.925C120.531 157.925 117.023 149.575 120.039 142.272L175.15 8.86686C178.167 1.5647 186.567 -1.92362 193.911 1.07548Z" fill="#2C528B"/>
</svg>
