<svg width="315" height="336" viewBox="0 0 315 336" fill="none" xmlns="http://www.w3.org/2000/svg">
<path fill-rule="evenodd" clip-rule="evenodd" d="M161.276 202.868C162.616 200.82 162.905 198.179 161.677 196.052L84.7059 62.7335C81.5872 57.3319 73.3359 59.9933 73.9804 66.193L94.8203 266.671C95.0844 269.211 96.9799 271.283 99.4832 271.767L206.31 292.414C211.162 293.351 214.849 288.148 212.373 283.859L195.252 254.204C194.024 252.078 191.592 251.007 189.148 251.144C177.678 251.784 166.331 246.168 160.254 235.642C154.176 225.116 154.987 212.482 161.276 202.868ZM213.714 243.545C212.486 241.418 212.775 238.778 214.115 236.729C220.404 227.115 221.215 214.481 215.137 203.955C209.06 193.429 197.714 187.814 186.243 188.454C183.799 188.59 181.368 187.52 180.14 185.393L103.168 52.0743C100.05 46.6727 106.48 40.8575 111.527 44.5155L274.726 162.803C276.794 164.301 277.64 166.979 276.807 169.388L241.275 272.227C239.661 276.897 233.311 277.489 230.835 273.2L213.714 243.545Z" fill="#93294C"/>
</svg>
