<svg width="662" height="662" viewBox="0 0 662 662" fill="none" xmlns="http://www.w3.org/2000/svg">
<path d="M205 392.959V305.475H233.153C242.623 305.475 250.685 306.783 257.339 309.398C263.994 312.013 269.326 315.5 273.335 319.858C277.43 324.216 280.416 329.09 282.293 334.478C284.17 339.866 285.108 345.295 285.108 350.762C285.108 357.26 283.829 363.124 281.269 368.354C278.795 373.505 275.383 377.942 271.032 381.667C266.681 385.312 261.647 388.125 255.932 390.106C250.216 392.008 244.158 392.959 237.76 392.959H205ZM223.555 376.318H234.561C243.945 376.318 251.495 374.059 257.211 369.543C263.012 365.026 265.913 358.37 265.913 349.574C265.913 343.868 264.889 339.233 262.842 335.667C260.88 332.022 258.406 329.208 255.42 327.227C252.519 325.246 249.533 323.899 246.462 323.186C243.391 322.394 240.789 321.997 238.656 321.997H223.555V376.318Z" fill="#0C2848"/>
<path d="M298.991 305C304.963 320.056 310.892 335.112 316.779 350.168C322.751 365.145 328.722 380.161 334.694 395.217H328.552C322.58 380.161 316.608 365.145 310.636 350.168C304.75 335.112 298.82 320.056 292.849 305H298.991Z" fill="#0C2848"/>
<path d="M340.278 306.07H362.033L380.588 356.705L394.921 323.305L387.498 306.07H405.926L427.041 354.685L443.037 306.07H463L426.657 396.762L404.262 344.938L378.157 397L340.278 306.07Z" fill="#0C2848"/>
<path fill-rule="evenodd" clip-rule="evenodd" d="M334 609.376C500.446 609.376 635.376 474.446 635.376 308C635.376 141.554 500.446 6.62366 334 6.62366C167.554 6.62366 32.6237 141.554 32.6237 308C32.6237 474.446 167.554 609.376 334 609.376ZM334 616C504.104 616 642 478.104 642 308C642 137.896 504.104 0 334 0C163.896 0 26 137.896 26 308C26 478.104 163.896 616 334 616Z" fill="#E0BC3A"/>
<path fill-rule="evenodd" clip-rule="evenodd" d="M354 655.376C520.446 655.376 655.376 520.446 655.376 354C655.376 187.554 520.446 52.6237 354 52.6237C187.554 52.6237 52.6237 187.554 52.6237 354C52.6237 520.446 187.554 655.376 354 655.376ZM354 662C524.104 662 662 524.104 662 354C662 183.896 524.104 46 354 46C183.896 46 46 183.896 46 354C46 524.104 183.896 662 354 662Z" fill="#4D7EC8"/>
<path fill-rule="evenodd" clip-rule="evenodd" d="M308 655.376C474.446 655.376 609.376 520.446 609.376 354C609.376 187.554 474.446 52.6237 308 52.6237C141.554 52.6237 6.62366 187.554 6.62366 354C6.62366 520.446 141.554 655.376 308 655.376ZM308 662C478.104 662 616 524.104 616 354C616 183.896 478.104 46 308 46C137.896 46 0 183.896 0 354C0 524.104 137.896 662 308 662Z" fill="#D82550"/>
</svg>
