<svg width="637" height="637" viewBox="0 0 637 637" fill="none" xmlns="http://www.w3.org/2000/svg">
<path d="M197.47 378.283V293.481H224.579C233.697 293.481 241.46 294.748 247.868 297.283C254.275 299.818 259.409 303.198 263.27 307.422C267.213 311.647 270.089 316.371 271.896 321.594C273.703 326.818 274.607 332.079 274.607 337.38C274.607 343.678 273.374 349.362 270.91 354.432C268.528 359.425 265.242 363.726 261.052 367.337C256.863 370.87 252.016 373.597 246.512 375.517C241.008 377.361 235.176 378.283 229.015 378.283H197.47ZM215.337 362.152H225.934C234.97 362.152 242.24 359.963 247.744 355.584C253.33 351.206 256.123 344.754 256.123 336.227C256.123 330.697 255.138 326.203 253.166 322.747C251.277 319.213 248.894 316.486 246.019 314.566C243.226 312.646 240.351 311.34 237.394 310.649C234.436 309.88 231.931 309.496 229.877 309.496H215.337V362.152Z" fill="#4B4B61"/>
<path d="M287.974 293.02C293.725 307.615 299.434 322.209 305.102 336.803C310.853 351.321 316.603 365.877 322.353 380.472H316.439C310.688 365.877 304.938 351.321 299.188 336.803C293.519 322.209 287.81 307.615 282.06 293.02H287.974Z" fill="#4B4B61"/>
<path d="M327.73 294.057H348.678L366.545 343.141L380.346 310.764L373.199 294.057H390.943L411.274 341.182L426.677 294.057H445.9L410.905 381.97L389.341 331.734L364.204 382.2L327.73 294.057Z" fill="#4B4B61"/>
<circle cx="321.685" cy="296.205" r="287.205" stroke="#E0BC3A" stroke-width="18"/>
<circle cx="340.795" cy="340.795" r="287.205" stroke="#4D7EC8" stroke-width="18"/>
<circle cx="296.205" cy="340.795" r="287.205" stroke="#D82550" stroke-width="18"/>
</svg>
