<svg xmlns="http://www.w3.org/2000/svg" viewBox="0 0 154 154"><title>engineering</title><g id="Layer_2" data-name="Layer 2"><g id="Layer_1-2" data-name="Layer 1"><path d="M154,85.8V69.93l-14.76-1.57a62.36,62.36,0,0,0-11.07-27.82l9.5-11.76L126.44,17.55,114.9,26.87A62.53,62.53,0,0,0,87.4,15L85.8,0H69.93L68.36,14.76A62.36,62.36,0,0,0,40.54,25.83l-11.76-9.5L17.55,27.56,26.87,39.1A62.53,62.53,0,0,0,15,66.6L0,68.2V84.07l14.76,1.57a62.36,62.36,0,0,0,11.07,27.82l-9.5,11.76,11.23,11.23,11.54-9.32A62.53,62.53,0,0,0,66.6,139l1.6,15H84.07l1.57-14.76a62.36,62.36,0,0,0,27.82-11.07l11.76,9.5,11.23-11.23-9.32-11.54A62.53,62.53,0,0,0,139,87.4ZM77,87.89A10.89,10.89,0,1,1,87.89,77,10.88,10.88,0,0,1,77,87.89Z"/></g></g></svg>