<svg xmlns="http://www.w3.org/2000/svg" viewBox="0 0 195.02 115"><title>userinterface</title><g id="Layer_2" data-name="Layer 2"><g id="Layer_1-2" data-name="Layer 1"><path d="M180.25,45.06h0A30.29,30.29,0,0,0,150,14.78H45.06A30.28,30.28,0,0,0,14.78,45.06h0A30.29,30.29,0,0,0,45.06,75.35h93.38l2-38.93,29.09,31.77A30.23,30.23,0,0,0,180.25,45.06Z"/><polygon points="143.81 115 160.32 91.77 187.85 99.17 146.9 54.44 143.81 115"/><path d="M7.39,45.06A37.71,37.71,0,0,1,45.06,7.39H150a37.65,37.65,0,0,1,24.53,66.24l5,5.45A45,45,0,0,0,150,0H45.06a45.07,45.07,0,0,0,0,90.13h92.62l.38-7.39h-93A37.72,37.72,0,0,1,7.39,45.06Z"/></g></g></svg>