<svg width="100" height="100" viewBox="0 0 100 100" fill="none" xmlns="http://www.w3.org/2000/svg">
<path d="M31 59.385V46.0724H35.2557C36.6872 46.0724 37.9058 46.2713 38.9117 46.6693C39.9176 47.0672 40.7236 47.5978 41.3298 48.261C41.9488 48.9242 42.4001 49.6658 42.6838 50.4858C42.9676 51.3058 43.1094 52.1318 43.1094 52.9638C43.1094 53.9526 42.916 54.845 42.5291 55.6408C42.1551 56.4246 41.6393 57.0999 40.9816 57.6667C40.3239 58.2214 39.563 58.6494 38.699 58.9509C37.8349 59.2403 36.9193 59.385 35.9521 59.385H31ZM33.8049 56.8527H35.4685C36.8871 56.8527 38.0284 56.509 38.8924 55.8217C39.7693 55.1344 40.2078 54.1214 40.2078 52.7829C40.2078 51.9147 40.053 51.2093 39.7435 50.6667C39.4469 50.112 39.0729 49.6839 38.6216 49.3824C38.1831 49.081 37.7318 48.876 37.2675 48.7674C36.8032 48.6469 36.4099 48.5866 36.0875 48.5866H33.8049V56.8527Z" fill="white"/>
<path d="M45.2079 46C46.1107 48.2911 47.007 50.5823 47.8968 52.8734C48.7995 55.1525 49.7022 57.4376 50.605 59.7287H49.6764C48.7737 57.4376 47.871 55.1525 46.9683 52.8734C46.0784 50.5823 45.1822 48.2911 44.2794 46H45.2079Z" fill="white"/>
<path d="M51.449 46.1628H54.7375L57.5424 53.8682L59.7089 48.7855L58.587 46.1628H61.3725L64.5643 53.5607L66.9823 46.1628H70L64.5063 59.9638L61.1211 52.0775L57.1749 60L51.449 46.1628Z" fill="white"/>
<circle cx="50.5" cy="46.5" r="46" stroke="white"/>
<circle cx="53.5" cy="53.5" r="46" stroke="white"/>
<circle cx="46.5" cy="53.5" r="46" stroke="white"/>
</svg>
